<?xml version="1.0" encoding="UTF-8"?>
<!-- Generator: visioncortex VTracer 0.6.12 -->
<svg version="1.1" xmlns="http://www.w3.org/2000/svg" width="1200" height="655" viewBox="0 0 1200 655">

<path d="M0 0 C7.03316 4.918116 12.311057 11.42017 14 20 C14.979155 28.106117 12.905281 35.499073 8.492188 42.335938 C4.526165 47.298077 0.102532 50.202355 -6 52 C-6.99 52 -7.98 52 -9 52 C-9 59.26 -9 66.52 -9 74 C-7.370625 74.0825 -5.74125 74.165 -4.0625 74.25 C5.353142 75.143279 12.680531 78.894307 19 86 C20.998409 89.265856 22 92.120437 22 96 C22.631641 96.037383 23.263281 96.074766 23.914062 96.113281 C43.835486 97.577248 63.182719 103.929828 80.75 113.300781 C83.46747 114.721574 86.131085 115.929591 89 117 C89.556875 116.468906 90.11375 115.937813 90.6875 115.390625 C99.93103 106.834114 107.310984 103.634467 119.941406 103.789062 C129.494756 104.447914 137.919246 109.339208 144.3125 116.375 C151.965079 125.940723 152.986931 136.134778 152 148 C150.562812 155.203258 147.324614 160.49199 142.585938 166.027344 C139.771205 169.528427 139.771205 169.528427 139 172 C139.828125 174.550781 139.828125 174.550781 141.25 177.3125 C145.423031 185.52962 146.359811 192.587478 146.3125 201.6875 C146.310768 202.222421 146.310768 202.222421 146.302002 204.929443 C146.183957 213.486717 145.596913 221.264453 141.40625 228.90625 C138.888427 234.693404 139.690945 241.263128 139.8125 247.4375 C139.819268 248.089443 139.819268 248.089443 139.853516 251.388672 C139.888727 254.592876 139.937979 257.796221 140 261 C140.552207 261.17419 141.104414 261.348379 141.673355 261.527847 C147.074606 263.273618 152.235783 265.308366 157.402344 267.652344 C158.16495 267.993749 158.927556 268.335154 159.713272 268.686905 C162.123177 269.766416 164.530491 270.851549 166.9375 271.9375 C170.112111 273.365899 173.287892 274.791658 176.464844 276.214844 C177.217364 276.552125 177.969885 276.889406 178.745209 277.236908 C184.10996 279.63038 189.509525 281.907938 195 284 C195.29874 283.210691 195.59748 282.421382 195.905273 281.608154 C197.047755 278.886224 198.017645 277.687879 200.25 275.8125 C200.812031 275.323945 201.374063 274.835391 201.953125 274.332031 C209.585142 269.365395 219.683399 269.946771 228.292969 271.652344 C240.568912 275.352596 248.727366 282.309258 254.875 293.375 C256.381388 298.228916 257.360378 304.279244 255 309 C255.946172 309.230742 256.892344 309.461484 257.867188 309.699219 C266.111427 311.726768 274.303043 313.888962 282.469238 316.211426 C287.036581 317.497512 291.603193 318.58979 296.25 319.5625 C302.577267 321.009187 306.793142 323.119488 310.875 328.25 C314.884672 335.192312 313.912032 344.51348 312.371094 352.09375 C309.790704 360.147342 304.752175 368.93897 297.5625 373.6875 C291.11685 376.062213 285.956758 375.700557 279.6875 372.875 C277.783046 371.933915 275.887426 370.974788 274 370 C271.974141 368.993121 269.948098 367.986614 267.921875 366.980469 C266.926074 366.478218 265.930273 365.975967 264.904297 365.458496 C260.712559 363.353465 256.487632 361.323137 252.25 359.3125 C251.553906 358.974121 250.857813 358.635742 250.140625 358.287109 C247.233983 356.90118 245.263488 356 242 356 C240.493344 358.099638 239.179262 360.154452 237.875 362.375 C233.858675 368.915801 229.34658 374.474205 224 380 C223.462461 380.622617 222.924922 381.245234 222.371094 381.886719 C211.056925 394.505278 192.759987 400.221286 176.351562 401.222656 C165.002189 401.483171 152.822299 400.607433 142 397 C142.002175 397.792693 142.004351 398.585386 142.006592 399.4021 C142.070989 441.012123 138.69927 482.882668 109.113281 514.675781 C106.96423 517.03934 104.970606 519.486699 103 522 C103.712852 522.496289 104.425703 522.992578 105.160156 523.503906 C115.870638 531.100708 127.017899 540.378629 129.371094 554.175781 C129.563424 560.364284 127.92736 564.239563 124 569 C113.305451 579.413114 97.40327 578.373512 83.5625 578.3125 C83.13795 578.311589 83.13795 578.311589 80.989471 578.306976 C39.159005 578.155279 39.159005 578.155279 27.148438 567.460938 C23.303517 563.056755 23.92015 559.589492 24 554 C23.276957 554.141293 22.553914 554.282587 21.80896 554.428162 C14.356681 555.790405 7.221982 556.294528 -0.34375 556.265625 C-1.474701 556.267538 -2.605652 556.269452 -3.770874 556.271423 C-6.143964 556.272774 -8.517061 556.269154 -10.890137 556.260742 C-14.490731 556.250028 -18.090827 556.260675 -21.691406 556.273438 C-24.013022 556.272116 -26.334637 556.269553 -28.65625 556.265625 C-29.71598 556.269673 -30.77571 556.273722 -31.867554 556.277893 C-39.081934 556.233367 -45.921805 555.383184 -53 554 C-52.947793 554.629224 -52.895586 555.258447 -52.841797 555.906738 C-52.554601 560.035631 -52.751303 562.521027 -54.6875 566.25 C-62.431827 574.059224 -76.545698 575.559231 -87 577 C-87.693838 577.095713 -88.387676 577.191426 -89.102539 577.290039 C-96.728301 578.193473 -104.380282 578.22082 -112.048828 578.240234 C-114.363645 578.249952 -116.677577 578.281076 -118.992188 578.3125 C-131.714094 578.404113 -143.667813 577.22676 -154 569 C-157.671165 565.290792 -158.30834 561.356137 -158.625 556.25 C-158.136323 544.69423 -150.922191 537.15709 -142.925781 529.617188 C-139.744579 526.77152 -136.596715 524.288819 -133 522 C-133.763125 521.13375 -134.52625 520.2675 -135.3125 519.375 C-156.8129 494.1133 -166.045568 468.995819 -170.1875 436.125 C-170.366004 434.743421 -170.545038 433.36191 -170.724609 431.980469 C-171.154921 428.654276 -171.579971 425.327504 -172 422 C-172.342568 422.458503 -172.685137 422.917007 -173.038086 423.389404 C-174.607861 425.489416 -176.17892 427.588464 -177.75 429.6875 C-178.288828 430.40873 -178.827656 431.129961 -179.382812 431.873047 C-180.915741 433.920067 -182.457031 435.960543 -184 438 C-184.689648 438.92168 -185.379297 439.843359 -186.089844 440.792969 C-191.291089 446.802588 -199.659076 452.436544 -207.628906 453.277344 C-215.987959 453.561665 -222.249075 451.493539 -228.421875 445.765625 C-234.226247 439.271625 -234.837518 431.747645 -234.429688 423.285156 C-232.80301 403.445981 -221.770035 382.65529 -210 367 C-209.24332 365.962305 -208.486641 364.924609 -207.707031 363.855469 C-198.799246 351.812201 -188.948548 341.079325 -177 332 C-176.278125 331.425078 -175.55625 330.850156 -174.8125 330.257812 C-173 329 -173 329 -171 329 C-171 307.22 -171 285.44 -171 263 C-177.93 260.36 -184.86 257.72 -192 255 C-196.685111 253.027322 -201.355776 251.060631 -206 249 C-208.220251 252.647555 -208.671583 256.396932 -209.125 260.5625 C-209.209192 261.329734 -209.293384 262.096968 -209.380127 262.887451 C-210.083208 270.191089 -210.182433 277.478992 -210.1875 284.8125 C-210.188306 285.919885 -210.189111 287.027271 -210.189941 288.168213 C-210.127374 297.533211 -209.983395 307.016897 -207.9375 316.1875 C-207.20959 319.614274 -206.734577 322.935218 -206.5625 326.4375 C-206.522539 327.240586 -206.482578 328.043672 -206.441406 328.871094 C-207 331 -207 331 -209.134033 332.560059 C-218.271212 337.150831 -230.367614 336.358083 -240.375 336.3125 C-241.642874 336.308311 -242.910747 336.304121 -244.217041 336.299805 C-253.527349 336.187654 -261.997958 335.37985 -271 333 C-271.560742 332.872383 -271.560742 332.872383 -274.398438 332.226562 C-295.142777 327.052345 -312.725002 315.674909 -328 301 C-328.680625 300.347734 -329.36125 299.695469 -330.0625 299.023438 C-331.742726 297.378216 -333.380637 295.704829 -335 294 C-335.639375 293.34 -336.27875 292.68 -336.9375 292 C-338.580582 288.907139 -338.301255 286.449741 -338 283 C-336.339844 280.613281 -336.339844 280.613281 -333.9375 278.3125 C-315.408738 259.130397 -301.528948 235.38352 -289 212 C-289.768281 211.885273 -290.536563 211.770547 -291.328125 211.652344 C-294.997469 210.756466 -296.547396 208.793243 -299 206 C-301.733826 200.532349 -300.136492 193.679913 -298.375 188.125 C-290.542553 166.771277 -290.542553 166.771277 -281 162 C-275.007968 161.593761 -271.358012 162.320994 -266 165 C-265.829844 164.40832 -265.659688 163.816641 -265.484375 163.207031 C-262.681519 154.067933 -262.681519 154.067933 -259 151 C-254.018361 151.352589 -249.807041 152.647706 -245.1875 154.484375 C-244.548336 154.736462 -243.909173 154.988549 -243.250641 155.248276 C-241.163825 156.074219 -239.081845 156.911615 -237 157.75 C-235.544879 158.330134 -234.089636 158.909963 -232.634277 159.489502 C-222.261565 163.63352 -211.93192 167.882708 -201.625 172.1875 C-201.289602 172.327222 -201.289602 172.327222 -199.592285 173.034302 C-197.697908 173.825028 -195.805611 174.620505 -193.914062 175.417969 C-192.841079 175.869382 -191.768096 176.320796 -190.662598 176.785889 C-188 178 -188 178 -185 180 C-184.117427 186.178008 -186.273303 190.631815 -189 196 C-187.583983 196.481083 -186.167156 196.959781 -184.75 197.4375 C-183.961094 197.704336 -183.172188 197.971172 -182.359375 198.246094 C-180.25178 198.919547 -178.15246 199.491506 -176 200 C-176.0825 198.948125 -176.165 197.89625 -176.25 196.8125 C-176.25 189.258201 -173.654222 181.296544 -169.625 174.9375 C-169.08875 173.968125 -168.5525 172.99875 -168 172 C-169.114417 168.833042 -170.982379 166.855954 -173.3125 164.5 C-180.866866 155.886758 -183.132881 146.342057 -182.554688 135.136719 C-181.941099 128.999417 -179.386863 124.080295 -176 119 C-175.605547 118.387695 -175.211094 117.775391 -174.804688 117.144531 C-169.77209 110.299495 -161.242245 105.598256 -153 104 C-141.801929 102.740217 -132.174585 105.211589 -123.25 112.125 C-120.765625 114.195313 -120.765625 114.195313 -119 116 C-119 116.66 -119 117.32 -119 118 C-118.403164 117.659688 -117.806328 117.319375 -117.191406 116.96875 C-97.804249 106.137292 -74.783283 95.344118 -52 96 C-51.95875 95.175 -51.9175 94.35 -51.875 93.5 C-50.308626 87.234505 -46.499198 82.706698 -41.125 79.1875 C-33.764436 75.053293 -28.858171 74 -20 74 C-20 66.74 -20 59.48 -20 52 C-22.31 51.67 -24.62 51.34 -27 51 C-34.283726 47.206393 -39.89992 40.553588 -43 33 C-44.172893 23.655949 -43.942788 14.725624 -38 7 C-27.878003 -4.218868 -13.53747 -8.536688 0 0 Z " fill="#20414A" transform="translate(615,42)"/>
<path d="M0 0 C1.40625 1.77832 1.40625 1.77832 2.5 4.078125 C2.9125 4.90957 3.325 5.741016 3.75 6.597656 C3.95625 7.035293 3.95625 7.035293 5 9.25 C8.119523 15.752256 10.77745 21.05486 16.859375 25.296875 C20.025061 26.336699 22.924032 26.263251 26.25 26.25 C27.513281 26.255156 28.776562 26.260312 30.078125 26.265625 C34.245868 26.13635 38.3089 25.571118 42.4375 25 C51.22102 23.8198 59.89908 23.690651 68.75 23.75 C69.534485 23.752105 70.31897 23.75421 71.127228 23.756378 C83.193419 23.79427 95.029013 24.437534 107 26 C121.090878 27.693201 121.090878 27.693201 127 24 C132.048604 19.71505 134.741573 14.489051 137.8125 8.6875 C138.31459 7.756152 138.81668 6.824805 139.333984 5.865234 C140.563981 3.580955 141.785656 1.292628 143 -1 C148.206896 -0.434033 152.160598 1.266633 156.75 3.625 C157.455923 3.984729 158.161846 4.344458 158.88916 4.715088 C168.591933 9.757378 177.411375 16.072309 185 24 C185 24.66 185 25.32 185 26 C184.019023 25.842734 183.038047 25.685469 182.027344 25.523438 C163.296062 22.881786 146.135039 26.502692 130.644531 37.703125 C118.889508 47.333747 110.263582 61.985452 108 77 C106.34407 96.177981 111.099907 113.666269 123.664062 128.613281 C129.975554 135.061979 137.578522 140.665529 146 144 C146.813398 144.369961 147.626797 144.739922 148.464844 145.121094 C160.096461 149.633225 172.739428 148.356931 185 148 C186.072012 157.590231 186.325496 167.174557 186.5625 176.8125 C186.583679 177.625606 186.604858 178.438713 186.626678 179.276459 C186.962325 192.185908 187.129284 205.08594 187 218 C161.71981 225.605301 136.267801 230.445083 110 233 C109.016445 233.097888 108.032891 233.195776 107.019531 233.296631 C73.725311 236.145927 38.966552 235.671469 6 230 C4.84645 229.802129 3.6929 229.604258 2.504395 229.400391 C-30.612416 223.533632 -30.612416 223.533632 -44 218 C-44.025696 210.923999 -44.043009 203.84801 -44.054932 196.771973 C-44.05991 194.37288 -44.066696 191.973789 -44.075439 189.574707 C-44.124757 175.678657 -44.006126 161.863446 -43 148 C-42.341047 148.01571 -41.682095 148.031421 -41.003174 148.047607 C-19.765748 148.487079 -2.160112 146.883427 14.5 132.625 C27.946082 119.579629 34.035821 103.572868 34.375 85.125 C34.362822 68.362943 27.281255 54.126752 16.113281 41.941406 C4.224039 30.323918 -12.226427 24.787874 -28.5625 24.875 C-29.291465 24.871133 -30.02043 24.867266 -30.771484 24.863281 C-34.956501 24.870815 -38.877604 25.179428 -43 26 C-38.1439 13.618366 -18.504682 4.995374 -7.4375 -0.285156 C-4.46522 -1.156834 -2.939566 -0.938678 0 0 Z " fill="#00B1E2" transform="translate(529,159)"/>
<path d="M0 0 C1.447883 0.13707 2.895802 0.273774 4.34375 0.410156 C5.097197 0.490703 5.850644 0.571249 6.626923 0.654236 C17.29721 1.706247 27.92956 2.095531 38.648438 2.105469 C39.944076 2.108797 41.239715 2.112126 42.574615 2.115555 C45.298938 2.121479 48.02323 2.123402 50.747559 2.122803 C53.481351 2.122722 56.214973 2.129597 58.94873 2.143311 C74.769136 2.221559 90.410224 1.880204 106.166504 0.368408 C119.578855 -0.839133 119.578855 -0.839133 124.4375 1.125 C129.646886 5.702945 130.1788 10.689712 130.6875 17.25 C130.76573 18.224934 130.84396 19.199868 130.924561 20.204346 C133.270703 54.168406 132.988438 89.288518 122.5 121.9375 C122.247183 122.848545 121.994365 123.75959 121.733887 124.698242 C119.655995 131.201209 119.655995 131.201209 116.5896 133.154297 C114.232259 133.976763 111.955815 134.491604 109.5 134.9375 C108.699814 135.124736 107.899629 135.311973 107.075195 135.504883 C104.600003 136.077908 102.118861 136.57769 99.625 137.0625 C98.803867 137.231367 97.982734 137.400234 97.136719 137.574219 C84.024091 140.172196 70.881671 140.214532 57.5625 140.25 C56.589671 140.252951 55.616841 140.255901 54.614532 140.258942 C38.293604 140.270179 22.511167 139.357145 6.5 135.9375 C5.485669 135.736729 4.471338 135.535957 3.42627 135.329102 C-3.925421 133.662253 -3.925421 133.662253 -6.5625 130.335938 C-6.717188 129.83707 -6.717188 129.83707 -7.5 127.3125 C-7.83 126.330234 -8.16 125.347969 -8.5 124.335938 C-8.83 123.214453 -9.16 122.092969 -9.5 120.9375 C-9.998604 119.539029 -10.49731 118.140594 -10.996094 116.742188 C-12.752934 111.478294 -13.690782 106.158463 -14.5625 100.6875 C-14.731689 99.628857 -14.900879 98.570215 -15.075195 97.479492 C-15.569199 94.301307 -16.041356 91.120968 -16.5 87.9375 C-16.622944 87.086719 -16.745889 86.235937 -16.872559 85.359375 C-19.942858 62.889736 -19.710296 39.09696 -17.4375 16.5625 C-17.353469 15.559932 -17.269438 14.557363 -17.182861 13.524414 C-16.607573 8.832025 -15.839676 5.648487 -12.410156 2.269531 C-8.289312 -0.714107 -4.896583 -0.625004 0 0 Z " fill="#00B1E2" transform="translate(543.5,447.0625)"/>
<path d="M0 0 C0.023208 12.491789 0.040958 24.983573 0.051812 37.475379 C0.057022 43.276318 0.064086 49.077243 0.075439 54.878174 C0.086334 60.480267 0.092291 66.082347 0.094877 71.68445 C0.09672 73.817777 0.100317 75.951104 0.10573 78.084425 C0.113028 81.080958 0.113987 84.077434 0.113525 87.073975 C0.117121 87.948639 0.120716 88.823303 0.12442 89.724472 C0.099241 104.900759 0.099241 104.900759 -3 108 C-4.6159 108.661909 -6.261025 109.253511 -7.917969 109.804688 C-8.917717 110.138958 -9.917466 110.473228 -10.94751 110.817627 C-12.016707 111.16656 -13.085903 111.515493 -14.1875 111.875 C-15.277966 112.233601 -16.368433 112.592202 -17.491943 112.96167 C-49.377229 123.342981 -49.377229 123.342981 -65 123 C-65.00991 122.665851 -65.00991 122.665851 -65.060059 120.974854 C-65.758846 98.472733 -65.758846 98.472733 -66.8125 88.3125 C-66.942695 87.029883 -67.072891 85.747266 -67.207031 84.425781 C-68.303182 79.690194 -70.420856 76.387732 -74.0625 73.1875 C-83.609249 67.336267 -101.28204 71.43035 -111.776855 72.28833 C-121.94873 73.073633 -131.691283 73 -142 73 C-142 57.82 -142 42.64 -142 27 C-135.4825 26.62875 -128.965 26.2575 -122.25 25.875 C-101.859883 24.57171 -82.040494 21.905828 -62 18 C-60.883833 17.791172 -59.767666 17.582344 -58.617676 17.367188 C-40.229296 13.906931 -22.135303 8.56522 -5.074219 0.8125 C-3 0 -3 0 0 0 Z " fill="#00B0E1" transform="translate(745,372)"/>
<path d="M0 0 C3.329487 0.637389 6.334796 1.412316 9.484375 2.671875 C9.905979 2.837922 9.905979 2.837922 12.039551 3.678223 C12.933999 4.031909 13.828447 4.385596 14.75 4.75 C43.683317 15.919421 74.079726 21.665478 104.875 24.625 C106.151414 24.748347 107.427827 24.871694 108.74292 24.998779 C119.840984 26.009347 130.836436 26.468402 142 27 C142 41.85 142 56.7 142 72 C135.379375 72.020625 128.75875 72.04125 121.9375 72.0625 C119.86074 72.071604 117.783979 72.080708 115.644287 72.090088 C113.980307 72.093011 112.316325 72.095559 110.652344 72.097656 C109.802892 72.102772 108.95344 72.107888 108.078247 72.113159 C103.28193 72.113856 98.748504 71.768195 94 71 C91.297314 70.837892 88.639996 70.72607 85.9375 70.6875 C85.25623 70.658496 84.574961 70.629492 83.873047 70.599609 C78.717839 70.535231 75.893879 71.669491 72 75 C67.424076 80.13529 67.204392 85.10667 66.8125 91.6875 C66.739185 92.69176 66.665869 93.696021 66.590332 94.730713 C66.371703 97.819515 66.180995 100.90878 66 104 C65.971077 104.483076 65.971077 104.483076 65.824707 106.927734 C65.510695 112.283639 65.237658 117.640186 65 123 C46.281187 123.840115 26.228022 116.663384 9 110 C8.200942 109.717856 7.401885 109.435713 6.578613 109.14502 C5.85271 108.850952 5.126807 108.556885 4.378906 108.253906 C4.062804 108.132452 4.062804 108.132452 2.463135 107.517822 C-1.498856 103.407744 -0.135569 93.537982 -0.113525 88.095703 C-0.113671 87.138685 -0.113817 86.181667 -0.113968 85.195648 C-0.113276 82.057492 -0.105516 78.919396 -0.097656 75.78125 C-0.09579 73.5955 -0.094367 71.40975 -0.093369 69.223999 C-0.089563 63.489856 -0.079749 57.755739 -0.068665 52.021606 C-0.058409 46.162845 -0.053862 40.30408 -0.048828 34.445312 C-0.038125 22.96353 -0.021072 11.481767 0 0 Z " fill="#00B0E1" transform="translate(455,372)"/>
<path d="M0 0 C5.370415 0.62847 9.920459 2.390015 14.878906 4.421875 C15.303166 4.592807 15.303166 4.592807 17.45018 5.457825 C20.15663 6.549523 22.859639 7.649451 25.5625 8.75 C28.234305 9.831785 30.906804 10.911841 33.579437 11.991577 C35.308576 12.690191 37.037442 13.389481 38.766022 14.089478 C45.481471 16.804781 52.224495 19.437684 59 22 C57.772164 25.76812 56.472692 29.242916 54.625 32.75 C52.087441 37.728379 49.990508 42.783253 48 48 C47.684341 48.814365 47.368682 49.62873 47.043457 50.467773 C35.963485 79.832758 34.468366 110.04525 35 141 C24.457193 144.514269 9.600368 142.379166 -1 140 C-1.336042 139.92467 -1.336042 139.92467 -3.036621 139.543457 C-24.217443 134.635993 -43.410317 124.194552 -59 109 C-57.541279 104.749319 -55.291666 101.436785 -52.625 97.875 C-38.721489 78.814066 -27.263393 58.20788 -17 37 C-16.602808 36.180962 -16.205615 35.361924 -15.796387 34.518066 C-10.281338 23.116621 -4.975251 11.647359 0 0 Z " fill="#DE8816" transform="translate(360,205)"/>
<path d="M0 0 C3.964437 2.368751 7.494234 5.000041 11 8 C11.643242 8.520781 12.286484 9.041562 12.949219 9.578125 C21.960031 17.596736 27.662963 29.667302 28.371094 41.628906 C28.817312 59.567959 24.669074 72.88767 12.1875 86.25 C1.142245 96.745108 -12.061315 100.637944 -27.040527 100.472656 C-38.070467 100.064551 -46.97952 96.229178 -56 90 C-56.306797 89.791816 -56.306797 89.791816 -57.859375 88.738281 C-66.136576 82.416474 -72.667909 72.080653 -75 62 C-75.201094 61.309062 -75.402187 60.618125 -75.609375 59.90625 C-79.019047 47.189096 -77.274877 34.043646 -71.375 22.375 C-63.29422 8.595979 -52.0626 0.732506 -37 -4 C-25.3092 -7.896933 -10.799404 -5.174714 0 0 Z " fill="#F6A82F" transform="translate(723,198)"/>
<path d="M0 0 C11.557443 8.315957 19.410185 19.08137 22.929688 33.019531 C24.267945 41.71183 24.060028 51.288542 21.339844 59.683594 C21.217383 60.076113 21.217383 60.076113 20.597656 62.0625 C15.620238 76.13582 5.768386 86.011759 -7.462158 92.395752 C-20.35967 98.331118 -35.345467 98.714611 -48.730469 93.941406 C-63.328815 87.67385 -72.976141 76.954846 -79.035156 62.308594 C-83.544688 50.583812 -83.129776 36.244912 -78.917969 24.507812 C-76.970606 20.135318 -74.633923 16.425007 -71.660156 12.683594 C-71.085234 11.934648 -70.510312 11.185703 -69.917969 10.414062 C-52.545195 -10.743237 -22.808479 -14.823663 0 0 Z " fill="#F6A82E" transform="translate(530.66015625,201.31640625)"/>
<path d="M0 0 C1.65625 1.59375 1.65625 1.59375 3.84375 4.46875 C3.84375 5.12875 3.84375 5.78875 3.84375 6.46875 C4.6275 6.51 5.41125 6.55125 6.21875 6.59375 C16.344904 9.037994 23.448743 15.907109 28.828125 24.503906 C31.456737 29.589259 31.731455 35.308307 30.195312 40.777344 C27.40358 47.85212 22.985822 52.196419 16.09375 55.34375 C12.84375 56.46875 12.84375 56.46875 9.84375 56.46875 C9.745781 57.402031 9.647812 58.335312 9.546875 59.296875 C8.806168 64.440386 7.200102 69.290325 5.59375 74.21875 C5.45002 74.691191 5.45002 74.691191 4.722656 77.082031 C2.487583 83.943414 2.487583 83.943414 -0.703125 86.546875 C-6.696749 88.799256 -12.075698 88.6904 -18.443115 88.708984 C-20.45113 88.718665 -22.459004 88.749863 -24.466797 88.78125 C-25.742324 88.786406 -27.017852 88.791562 -28.332031 88.796875 C-29.496458 88.806221 -30.660884 88.815566 -31.860596 88.825195 C-35.608398 88.419847 -37.976376 87.475251 -41.15625 85.46875 C-42.516564 82.857777 -43.459264 80.665731 -44.34375 77.90625 C-44.590767 77.191868 -44.837783 76.477485 -45.092285 75.741455 C-45.804812 73.657725 -46.485186 71.566146 -47.15625 69.46875 C-47.32834 68.945391 -47.32834 68.945391 -48.199219 66.296875 C-49.279249 62.869174 -50.15625 60.07846 -50.15625 56.46875 C-51.3525 56.22125 -52.54875 55.97375 -53.78125 55.71875 C-61.528235 53.761473 -65.787909 49.275012 -69.90625 42.65625 C-72.278142 36.607925 -71.593912 30.82541 -69.386719 24.835938 C-65.217333 16.814833 -58.414518 10.950024 -50.15625 7.46875 C-49.08375 7.159375 -48.01125 6.85 -46.90625 6.53125 C-43.731407 5.304606 -42.588083 3.658249 -40.570312 0.996094 C-31.069871 -9.265432 -10.446146 -7.418278 0 0 Z " fill="#1E414A" transform="translate(620.15625,273.53125)"/>
<path d="M0 0 C5.119161 0.676753 9.541718 2.844603 14.210938 4.929688 C15.097299 5.320686 15.98366 5.711685 16.896881 6.114532 C19.72503 7.363315 22.550056 8.618988 25.375 9.875 C27.268022 10.712709 29.161249 11.549954 31.054688 12.386719 C33.731897 13.569937 36.408797 14.753798 39.084076 15.941376 C39.486168 16.119835 39.486168 16.119835 41.520996 17.022949 C42.280073 17.363161 43.039149 17.703373 43.821228 18.053894 C45.236425 18.668427 46.665069 19.25317 48.106995 19.802063 C50.025879 20.539551 50.025879 20.539551 53 22 C54.0625 25.5625 54.0625 25.5625 54.433594 27.683594 C56.182045 34.834158 60.77005 40.478433 66.679688 44.648438 C67.445391 45.094453 68.211094 45.540469 69 46 C69.564448 46.341279 70.128896 46.682559 70.710449 47.03418 C75.994852 49.994077 80.369429 50.636188 86.375 50.5 C87.209185 50.491541 88.043369 50.483081 88.902832 50.474365 C94.430007 50.315353 99.016741 49.533818 103.992188 46.972656 C108.751403 44.667122 111.767019 44.982218 116.775146 46.689941 C117.529973 46.957261 118.2848 47.22458 119.0625 47.5 C128.780142 50.791696 138.649284 53.207518 148.654541 55.462891 C149.808816 55.735527 150.963091 56.008164 152.152344 56.289062 C152.667928 56.406125 152.667928 56.406125 155.2771 56.998535 C158.402968 58.148209 159.915444 59.425661 162 62 C163.733212 70.691549 161.342918 78.854161 156.609375 86.140625 C154.373866 89.035021 152.925921 90.632775 149.46875 92.003906 C144.036587 91.997789 140.08728 89.408331 135.375 86.875 C133.191807 85.745402 131.006842 84.619221 128.820312 83.496094 C127.688838 82.911987 126.557363 82.327881 125.391602 81.726074 C95.088836 66.304209 63.348262 53.129671 31.75 40.625 C31.104472 40.367913 30.458943 40.110825 29.793854 39.845947 C21.966388 36.739275 14.091117 33.989009 6.025818 31.57901 C1.09695 30.09695 1.09695 30.09695 0 29 C-0.087756 26.854412 -0.106952 24.705956 -0.097656 22.558594 C-0.094434 21.253418 -0.091211 19.948242 -0.087891 18.603516 C-0.079534 17.214843 -0.071069 15.826171 -0.0625 14.4375 C-0.057487 13.044923 -0.052923 11.652345 -0.048828 10.259766 C-0.036994 6.839801 -0.020509 3.419922 0 0 Z " fill="#F2C686" transform="translate(756,315)"/>
<path d="M0 0 C0.726357 0.102329 1.452713 0.204659 2.20108 0.310089 C11.903336 1.707272 21.142148 3.816008 30.5 6.75 C28.881169 11.827078 26.82457 16.233885 24.25 20.875 C23.880039 21.577539 23.510078 22.280078 23.128906 23.003906 C20.603375 27.563655 18.258761 30.285754 13.5 32.75 C8.594826 33.827859 3.335715 32.583126 -1.539795 31.743164 C-8.003093 30.733215 -14.268442 30.458996 -20.800781 30.484375 C-21.920831 30.482462 -23.04088 30.480548 -24.19487 30.478577 C-26.545199 30.477227 -28.895535 30.48084 -31.24585 30.489258 C-34.793632 30.499943 -38.340905 30.489338 -41.888672 30.476562 C-53.953212 30.469904 -65.572466 30.937525 -77.5 32.75 C-82.576974 33.258286 -86.601085 33.318099 -90.930176 30.26123 C-94.298101 27.019013 -96.23828 22.730057 -98.375 18.625 C-98.872578 17.705898 -99.370156 16.786797 -99.882812 15.839844 C-103.5 9.072523 -103.5 9.072523 -103.5 6.75 C-69.725851 -2.809637 -34.76179 -4.970882 0 0 Z " fill="#00AFE0" transform="translate(636.5,148.25)"/>
<path d="M0 0 C-0.30061 3.006097 -0.642304 6.000528 -1 9 C-1.076055 9.835312 -1.152109 10.670625 -1.230469 11.53125 C-2.919847 25.364274 -8.834878 40.694446 -17 52 C-17.496289 52.714141 -17.992578 53.428281 -18.503906 54.164062 C-31.323726 71.648443 -50.602589 86.650224 -72.023438 91.714844 C-72.675703 91.808945 -73.327969 91.903047 -74 92 C-72.929792 86.827327 -71.645411 81.852343 -70.0625 76.8125 C-64.357878 56.856926 -64.082735 35.608898 -63 15 C-62.342175 14.905012 -61.684351 14.810024 -61.006592 14.712158 C-42.742048 12.035773 -25.1678 8.767846 -7.984131 1.879395 C-5.143338 0.744569 -3.094406 0 0 0 Z " fill="#00AFE0" transform="translate(743,485)"/>
<path d="M0 0 C4.444016 1.28615 8.86533 2.600739 13.230469 4.136719 C29.366544 9.813895 46.18188 13.036348 63 16 C63.039639 16.777869 63.079277 17.555737 63.120117 18.357178 C64.064318 36.126148 65.71691 53.481623 69 71 C69.081412 71.449883 69.081412 71.449883 69.493408 73.726562 C70.338018 78.220034 71.301943 82.306848 73.1875 86.5 C74.292969 88.96875 74.292969 88.96875 75 91 C74.67 91.66 74.34 92.32 74 93 C45.204647 81.794852 22.543811 65.969452 9.691406 37.140625 C6.560752 29.718899 4.365356 22.027285 2.3125 14.25 C2.087559 13.426289 1.862617 12.602578 1.630859 11.753906 C0.572079 7.75693 -0.313984 4.175139 0 0 Z " fill="#00AFE0" transform="translate(457,485)"/>
<path d="M0 0 C1.687652 0.457772 3.375114 0.916249 5.0625 1.375 C5.532363 1.502617 5.532363 1.502617 7.910156 2.148438 C10.064284 2.742116 12.211083 3.36276 14.351562 4.003906 C18.319181 5.087143 22.263179 5.86485 26.3125 6.5625 C27.007949 6.688184 27.703398 6.813867 28.419922 6.943359 C37.627394 8.5553 46.765293 9.167147 56.105469 9.238281 C57.146573 9.246353 58.187677 9.254425 59.26033 9.262741 C61.457961 9.276497 63.655612 9.287257 65.853271 9.295166 C68.052882 9.306601 70.252466 9.326916 72.451904 9.356689 C94.049994 9.647874 114.123237 6.262427 135 1 C135.81082 0.797617 136.621641 0.595234 137.457031 0.386719 C137.966211 0.259102 138.475391 0.131484 139 0 C137.750472 5.35702 136.419663 10.685529 135 16 C134.722852 17.050586 134.445703 18.101172 134.160156 19.183594 C134.020293 19.617363 134.020293 19.617363 133.3125 21.8125 C133.197129 22.186973 133.197129 22.186973 132.613281 24.082031 C128.224217 29.300023 118.521181 29.881574 112.125 31.125 C111.303867 31.293867 110.482734 31.462734 109.636719 31.636719 C96.524091 34.234696 83.381671 34.277032 70.0625 34.3125 C69.089671 34.315451 68.116841 34.318401 67.114532 34.321442 C50.793604 34.332679 35.011167 33.419645 19 30 C17.985669 29.799229 16.971338 29.598457 15.92627 29.391602 C8.574579 27.724753 8.574579 27.724753 5.9375 24.398438 C5.628125 23.400703 5.31875 22.402969 5 21.375 C4.645508 20.307656 4.291016 19.240312 3.925781 18.140625 C3.620273 17.104219 3.314766 16.067812 3 15 C2.396666 13.374691 1.7926 11.749653 1.1875 10.125 C0.067267 6.669898 -0.281171 3.655224 0 0 Z " fill="#0099C3" transform="translate(531,553)"/>
<path d="M0 0 C10.267151 5.627801 20.196602 13.113621 24.515625 24.378906 C24.785156 26.988281 24.785156 26.988281 24.515625 29.378906 C18.943872 35.879284 10.797045 37.033109 2.567871 37.697754 C-1.845544 37.892453 -6.254964 37.903239 -10.671875 37.878906 C-11.455635 37.878473 -12.239395 37.87804 -13.046906 37.877594 C-49.501638 37.767761 -49.501638 37.767761 -59.484375 29.378906 C-59.796875 25.691406 -59.796875 25.691406 -59.484375 22.378906 C-59.002266 22.240977 -59.002266 22.240977 -56.5625 21.542969 C-55.919902 21.358955 -55.277305 21.174941 -54.615234 20.985352 C-53.190524 20.579877 -51.764727 20.178204 -50.337891 19.780273 C-34.424122 15.327465 -18.037577 10.547949 -4.710938 0.433594 C-2.484375 -0.621094 -2.484375 -0.621094 0 0 Z " fill="#00B0E1" transform="translate(708.484375,571.62109375)"/>
<path d="M0 0 C2.106654 1.1672 4.186941 2.382367 6.25 3.625 C19.289115 11.226716 32.333386 15.941097 46.981445 19.479004 C49.703267 20.181516 52.350352 21.064581 55 22 C55 24.64 55 27.28 55 30 C39.067616 35.54537 23.909437 37.278073 7.125 37.3125 C6.417667 37.316085 5.710334 37.31967 4.981567 37.323364 C-19.373552 37.389727 -19.373552 37.389727 -27 31 C-28 30 -28 30 -28.4375 26.5 C-28.305098 19.747502 -24.198156 15.245782 -19.65625 10.605469 C-5.820576 -2.269394 -5.820576 -2.269394 0 0 Z " fill="#00AFE0" transform="translate(496,572)"/>
<path d="M0 0 C3.692877 1.578964 6.267377 3.900633 9.25 6.5625 C16.214718 12.536453 23.833973 16.875015 32 21 C32.639214 21.326294 33.278428 21.652588 33.937012 21.98877 C55.136658 32.602193 76.711834 33.884589 100 34 C100.360886 36.311461 100.713542 38.624208 101.0625 40.9375 C101.259727 42.225273 101.456953 43.513047 101.660156 44.839844 C101.71623 45.36127 101.71623 45.36127 102 48 C98.16346 51.83654 85.305858 50.236794 80.125 50.25 C47.243536 50.19453 19.068344 39.145781 -4.375 15.8125 C-5.591535 14.549516 -6.803492 13.281973 -8 12 C-6.590233 8.961473 -4.911298 6.406041 -2.875 3.75 C-2.605586 3.396797 -2.605586 3.396797 -1.242188 1.609375 C-0.832266 1.078281 -0.422344 0.547188 0 0 Z " fill="#F1A536" transform="translate(296,318)"/>
<path d="M0 0 C1.275267 15.675582 1.113342 31.346451 1.0625 47.0625 C1.056896 49.779295 1.052844 52.496092 1.048828 55.212891 C1.037912 61.808614 1.021261 68.404303 1 75 C-0.892839 75.964266 -2.787785 76.924397 -4.683594 77.882812 C-5.738611 78.417935 -6.793628 78.953057 -7.880615 79.504395 C-12.730572 81.829732 -17.572209 84 -23 84 C-23.025056 82.82083 -23.050112 81.64166 -23.075928 80.426758 C-23.171009 75.998449 -23.270972 71.57026 -23.372314 67.14209 C-23.415287 65.235543 -23.456983 63.328968 -23.497314 61.422363 C-23.695742 52.079118 -23.904845 42.785769 -24.792725 33.477539 C-25.106139 29.731332 -25.110004 26.006455 -25.0625 22.25 C-25.057988 21.541016 -25.053477 20.832031 -25.048828 20.101562 C-25.037338 18.401003 -25.019422 16.700488 -25 15 C-24.01 14.503711 -23.02 14.007422 -22 13.496094 C-15.164845 10.00109 -8.93323 6.704386 -3.417969 1.25 C-2 0 -2 0 0 0 Z " fill="#00ADDD" transform="translate(744,290)"/>
<path d="M0 0 C7.416453 3.180574 13.290341 6.580682 17 14 C17.425321 18.163243 17.423834 21.878086 15.9375 25.8125 C12.604749 29.575284 9.449336 31.618135 4.519531 32.386719 C-3.857545 32.737275 -12.606646 30.714308 -19.4375 25.6875 C-22 24 -22 24 -24.375 24 C-26.593774 24.845247 -28.584392 25.787621 -30.6875 26.875 C-38.316839 30.797024 -46.367157 33.289133 -55 32 C-59.025857 30.66057 -61.503795 28.720297 -63.9375 25.1875 C-65.401992 20.794024 -65.96341 17.396889 -64.191406 12.988281 C-61.19882 7.551922 -56.785805 3.367821 -51 1 C-48.21875 1.347656 -48.21875 1.347656 -46 2 C-45.67 2.99 -45.34 3.98 -45 5 C-43.21875 6.054688 -43.21875 6.054688 -41 7 C-40.288437 7.353203 -39.576875 7.706406 -38.84375 8.070312 C-28.823366 12.579485 -19.787581 11.966419 -9.574219 8.214844 C-6.147781 6.597815 -4.33533 4.958085 -2 2 C-1.34 1.34 -0.68 0.68 0 0 Z " fill="#7FD3EA" transform="translate(624,289)"/>
<path d="M0 0 C0.415078 0.340312 0.830156 0.680625 1.257812 1.03125 C8.254363 6.534812 16.043013 11.021506 24 15 C24.20147 29.517062 23.578331 43.997091 23 58.5 C22.903363 60.980458 22.807007 63.460926 22.710938 65.941406 C22.477192 71.961068 22.23999 77.980585 22 84 C18.057055 83.51285 14.486766 83.038497 10.851562 81.40625 C10.156758 81.098164 9.461953 80.790078 8.746094 80.472656 C8.046133 80.15168 7.346172 79.830703 6.625 79.5 C5.901836 79.179023 5.178672 78.858047 4.433594 78.527344 C-0.83522 76.16478 -0.83522 76.16478 -2 75 C-2.101899 72.152029 -2.13947 69.328901 -2.132812 66.480469 C-2.134177 65.602245 -2.135542 64.72402 -2.136948 63.819183 C-2.138985 60.941918 -2.132638 58.064755 -2.125 55.1875 C-2.123781 54.215698 -2.122563 53.243896 -2.121307 52.242645 C-2.103223 40.010127 -1.992341 27.788086 -1.5625 15.5625 C-1.523345 14.429011 -1.484189 13.295522 -1.443848 12.127686 C-1.107875 3.892487 -1.107875 3.892487 0 0 Z " fill="#00ADDD" transform="translate(457,290)"/>
<path d="M0 0 C0.233414 7.597706 0.410232 15.195034 0.518122 22.795527 C0.569953 26.326495 0.64003 29.854982 0.754395 33.384521 C1.612215 60.561586 1.612215 60.561586 -4.789062 68.425781 C-7.443848 71.239502 -7.443848 71.239502 -10 73 C-14 73 -14 73 -15.570312 71.679688 C-16.083359 71.084141 -16.596406 70.488594 -17.125 69.875 C-24.240367 62.38196 -33.51425 58.68347 -43 55 C-41.60527 50.241937 -39.564157 46.152334 -37 41.9375 C-36.605547 41.286282 -36.211094 40.635063 -35.804688 39.964111 C-11.118831 0 -11.118831 0 0 0 Z " fill="#00B1E2" transform="translate(444,384)"/>
<path d="M0 0 C3.623887 0.863766 6.722831 2.138895 10.110107 3.689453 C10.738188 3.974215 11.366269 4.258977 12.013382 4.552368 C14.003163 5.455994 15.988362 6.369189 17.973389 7.283203 C19.969979 8.195229 21.967464 9.10525 23.96553 10.014038 C25.771435 10.836566 27.57499 11.664245 29.378418 12.492188 C32.285889 13.783203 32.285889 13.783203 35.285889 14.783203 C33.917228 19.731438 31.666946 23.557291 28.660889 27.658203 C28.210684 28.273892 27.760479 28.88958 27.296631 29.523926 C19.936194 39.422175 12.097818 45.110935 1.285889 50.783203 C0.548545 51.187969 -0.188799 51.592734 -0.948486 52.009766 C-2.714111 52.783203 -2.714111 52.783203 -5.714111 52.783203 C-7.214111 50.806641 -7.214111 50.806641 -8.714111 48.158203 C-9.209111 47.299688 -9.704111 46.441172 -10.214111 45.556641 C-16.684525 33.593115 -18.266573 22.246905 -17.714111 8.783203 C-17.050244 8.468672 -16.386377 8.154141 -15.702393 7.830078 C-8.176377 4.182433 -8.176377 4.182433 -4.964111 1.408203 C-2.714111 -0.216797 -2.714111 -0.216797 0 0 Z " fill="#00B1E2" transform="translate(811.714111328125,376.216796875)"/>
<path d="M0 0 C3.3 0.99 6.6 1.98 10 3 C9.67 3.165 9.67 3.165 8 4 C11.94145 16.939365 19.146423 27.866599 28 38 C28.578789 38.662578 29.157578 39.325156 29.753906 40.007812 C39.631001 50.546225 51.934363 58.101338 65 64 C65 60.7 65 57.4 65 54 C65.33 54 65.66 54 66 54 C66.130518 54.765542 66.261035 55.531084 66.395508 56.319824 C67.002354 59.840274 67.626053 63.357543 68.25 66.875 C68.454961 68.078984 68.659922 69.282969 68.871094 70.523438 C70.05166 77.105986 71.516252 83.026965 74.319336 89.11377 C74.543955 89.736226 74.768574 90.358682 75 91 C74.67 91.66 74.34 92.32 74 93 C45.204647 81.794852 22.543811 65.969452 9.691406 37.140625 C6.560752 29.718899 4.365356 22.027285 2.3125 14.25 C2.087559 13.426289 1.862617 12.602578 1.630859 11.753906 C1.418809 10.953398 1.206758 10.152891 0.988281 9.328125 C0.797903 8.615596 0.607524 7.903066 0.411377 7.168945 C0 5 0 5 0 0 Z " fill="#0097C1" transform="translate(457,485)"/>
<path d="M0 0 C-0.30061 3.006097 -0.642304 6.000528 -1 9 C-1.076055 9.835312 -1.152109 10.670625 -1.230469 11.53125 C-2.919847 25.364274 -8.834878 40.694446 -17 52 C-17.496289 52.714141 -17.992578 53.428281 -18.503906 54.164062 C-31.323726 71.648443 -50.602589 86.650224 -72.023438 91.714844 C-72.675703 91.808945 -73.327969 91.903047 -74 92 C-72.89506 86.659454 -71.56635 81.475065 -70 76.25 C-68.046816 69.559617 -66.872042 62.907493 -66 56 C-65.67 56 -65.34 56 -65 56 C-65 58.64 -65 61.28 -65 64 C-54.756893 59.229416 -45.770928 54.201393 -37 47 C-36.297461 46.461172 -35.594922 45.922344 -34.871094 45.367188 C-22.58086 35.485343 -12.4864 20.262257 -8.019531 5.277344 C-6.282756 1.39788 -4.217206 0 0 0 Z " fill="#0099C3" transform="translate(743,485)"/>
<path d="M0 0 C3.775048 0.716791 7.242492 1.742949 10.875 3 C18.277195 5.340213 25.281841 5.786496 33 6 C33.001289 6.545273 33.001289 6.545273 33.007812 9.304688 C33.258067 22.235476 35.586743 34.60174 42.199219 45.894531 C44 49 44 49 44 51 C32.630861 56.684569 12.612735 51.024656 1 48 C0 47 0 47 -0.120255 45.095444 C-0.118034 44.262714 -0.115813 43.429985 -0.113525 42.572021 C-0.11345 41.631122 -0.113374 40.690222 -0.113297 39.72081 C-0.108135 38.697904 -0.102974 37.674997 -0.097656 36.621094 C-0.096241 35.579295 -0.094826 34.537495 -0.093369 33.464127 C-0.087751 30.121889 -0.075195 26.779717 -0.0625 23.4375 C-0.057487 21.177735 -0.052924 18.91797 -0.048828 16.658203 C-0.037776 11.105446 -0.02102 5.552728 0 0 Z " fill="#00B0E1" transform="translate(756,380)"/>
<path d="M0 0 C3.581714 3.170568 5.631588 6.686823 7.6875 10.9375 C7.994941 11.545293 8.302383 12.153086 8.619141 12.779297 C14.120234 23.937969 13.869159 39.415594 9.9375 51.125 C4.708346 64.68261 -4.867253 75.658759 -18 82 C-29.851854 87.213521 -44.117705 88.191831 -56.5625 84.375 C-62.082826 82.185373 -67.118318 79.371091 -72 76 C-72.306797 75.791816 -72.306797 75.791816 -73.859375 74.738281 C-81.260381 69.085678 -87.471387 59.883592 -90 51 C-86.566542 52.144486 -86.396137 52.643533 -84.5625 55.5625 C-77.741449 64.966771 -66.247271 70.396364 -55.046875 72.574219 C-41.744859 74.43309 -28.68145 72.195015 -17.4375 64.625 C-5.632692 55.454487 2.205725 44.080642 4.279297 28.963867 C5.015248 20.35158 3.781667 12.611194 0.875 4.476562 C0 2 0 2 0 0 Z " fill="#DF8918" transform="translate(739,212)"/>
<path d="M0 0 C0.33 0 0.66 0 1 0 C0.110923 7.493649 0.110923 7.493649 -0.511719 10.335938 C-3.207809 25.045809 0.685174 38.287823 9.074219 50.539062 C16.881177 60.515501 29.337023 68.191003 42 70 C56.333796 71.025199 70.043756 67.920734 81.578125 59.007812 C83.790722 57.066295 85.912472 55.074747 88 53 C88.549141 52.465039 89.098281 51.930078 89.664062 51.378906 C90.791069 50.267641 91.89874 49.136785 93 48 C89.903562 60.076108 80.323241 70.18102 69.914062 76.460938 C56.768282 83.403883 41.452852 85.498751 27.0625 81.375 C12.706695 76.255598 3.267842 67.281336 -4 54 C-10.378228 40.393115 -11.268515 25.022484 -6.21875 10.792969 C-4.497839 6.849215 -2.527819 3.484291 0 0 Z " fill="#DF8917" transform="translate(458,215)"/>
<path d="M0 0 C0.726357 0.102329 1.452713 0.204659 2.20108 0.310089 C11.903336 1.707272 21.142148 3.816008 30.5 6.75 C28.625 12.5 28.625 12.5 27.5 14.75 C18.965453 13.583703 10.468589 12.281648 1.98291 10.803467 C-6.766363 9.304355 -15.340346 8.582644 -24.21875 8.511719 C-25.227079 8.502106 -26.235408 8.492494 -27.274292 8.48259 C-30.516229 8.457988 -33.75798 8.445347 -37 8.4375 C-38.100376 8.434217 -39.200752 8.430934 -40.334473 8.427551 C-56.414022 8.411984 -71.788443 9.030612 -87.5 12.75 C-89.124208 13.130995 -90.749194 13.508692 -92.375 13.882812 C-92.724336 13.966038 -92.724336 13.966038 -94.492188 14.387207 C-96.5 14.75 -96.5 14.75 -100.5 14.75 C-103.5 9 -103.5 9 -103.5 6.75 C-69.725851 -2.809637 -34.76179 -4.970882 0 0 Z " fill="#49D2F8" transform="translate(636.5,148.25)"/>
<path d="M0 0 C4.95231 2.81602 8.992922 6.499311 11.1875 11.8125 C12.147712 18.512877 11.622322 23.614508 7.625 29.15625 C4.360736 32.91725 1.209787 35.60284 -3.789062 36.121094 C-10.760493 36.367408 -15.939981 36.509803 -21.257812 31.648438 C-24.82196 27.439519 -26.98055 23.322231 -27.25 17.75 C-26.383582 9.952239 -23.514022 6.063671 -17.652344 1.195312 C-12.453866 -2.711824 -5.941254 -1.850555 0 0 Z " fill="#F2A834" transform="translate(607.8125,49.1875)"/>
<path d="M0 0 C2.429316 0.701913 4.847348 1.422707 7.257812 2.1875 C10 3 10 3 12.304688 3.375 C14.770835 3.896148 16.082382 4.336578 18 6 C19.432109 9.445168 20.295078 12.823504 21.121094 16.460938 C21.885538 19.5391 22.732929 21.562052 24.3125 24.25 C27.647293 31.036368 25.721236 39.732766 25 47 C20.244755 46.411164 16.195005 44.998119 11.851562 43.058594 C11.194171 42.77146 10.536779 42.484326 9.859467 42.188492 C7.778462 41.27783 5.701737 40.357845 3.625 39.4375 C2.207304 38.815133 0.789338 38.193381 -0.628906 37.572266 C-4.089109 36.055286 -7.545508 34.529937 -11 33 C-10.466427 26.079974 -8.496432 20.162189 -6.0625 13.6875 C-5.702207 12.699434 -5.341914 11.711367 -4.970703 10.693359 C-2.284903 3.427354 -2.284903 3.427354 0 0 Z " fill="#D3A265" transform="translate(421,247)"/>
<path d="M0 0 C7.299775 3.053725 12.600038 6.512576 16.25 13.8125 C17.034685 18.336451 16.900858 21.660982 14.625 25.6875 C8.942807 30.771567 3.973342 31.422694 -3.496094 31.21875 C-11.455218 30.225054 -16.339199 25.747381 -21.339844 19.777344 C-24.843208 14.895926 -25.620227 10.755511 -24.75 4.8125 C-19.031296 -4.786753 -9.308796 -3.383083 0 0 Z " fill="#00B2E3" transform="translate(843.75,325.1875)"/>
<path d="M0 0 C5.441671 0.472584 9.363649 1.919242 14.0625 4.75 C14.648379 5.085156 15.234258 5.420313 15.837891 5.765625 C21.854245 9.291302 26.807794 13.356645 31 19 C27.261662 27.258676 20.380288 35.369637 12.1875 39.375 C7.924281 40.210925 4.19144 40.219609 0 39 C-2.705524 36.801762 -4.447783 35.104433 -6 32 C-6.882434 20.630177 -4.898422 10.26336 0 0 Z " fill="#00B2E3" transform="translate(398,444)"/>
<path d="M0 0 C0.680625 0.7425 1.36125 1.485 2.0625 2.25 C5.780863 5.957859 9.913639 8.498032 15.06958 9.738525 C18 11 18 11 19.459717 13.657959 C19.786252 14.759543 20.112788 15.861128 20.449219 16.996094 C20.822402 18.194277 21.195586 19.392461 21.580078 20.626953 C21.945527 21.884434 22.310977 23.141914 22.6875 24.4375 C23.433491 26.917759 24.187064 29.395754 24.949219 31.871094 C25.272371 32.973806 25.595522 34.076519 25.928467 35.212646 C26.979266 37.946066 27.692184 39.254414 30 41 C34.938055 42.646018 40.060168 42.225094 45.231934 42.240234 C47.228963 42.249898 49.225851 42.281085 51.222656 42.3125 C64.695301 42.3671 64.695301 42.3671 69 39 C70.977911 35.163562 72.179143 31.199584 73.375 27.0625 C73.545801 26.513682 73.545801 26.513682 74.410156 23.736328 C76.814229 15.949222 76.814229 15.949222 77.443115 12.73584 C78 11 78 11 80.511719 9.691406 C81.035723 9.505137 81.035723 9.505137 83.6875 8.5625 C88.709283 6.635189 92.159978 4.733355 96 1 C95.391685 7.387302 92.785259 11.576624 88.0625 15.8125 C85.070597 17.949573 83.518886 18.446267 80 19 C79.913633 19.571055 79.827266 20.142109 79.738281 20.730469 C78.133202 29.992805 75.399879 40.847195 69 48 C62.344348 51.921744 55.553143 51.445371 48 51.375 C46.754766 51.386602 45.509531 51.398203 44.226562 51.410156 C37.771655 51.389512 32.625773 51.314903 27 48 C20.228819 40.43221 17.485605 28.822735 16 19 C15.577188 18.896875 15.577188 18.896875 13.4375 18.375 C7.922334 16.168934 3.569918 12.874761 1.0625 7.375 C0 4 0 4 0 0 Z " fill="#0095BE" transform="translate(552,319)"/>
<path d="M0 0 C3.390435 2.010444 6.012966 4.280622 8.5625 7.3125 C9.029141 7.819102 9.495781 8.325703 9.976562 8.847656 C15.131327 15.399103 14.422266 23.444834 13.5625 31.3125 C11.896804 37.838108 7.768429 41.307939 2.5625 45.3125 C0.5825 43.3325 -1.3975 41.3525 -3.4375 39.3125 C-2.292572 37.022644 -1.139437 34.819549 0.1875 32.625 C1.936215 28.412188 2.231983 24.818633 1.5625 20.3125 C0.0625 17.875 0.0625 17.875 -1.4375 16.3125 C-1.4375 15.6525 -1.4375 14.9925 -1.4375 14.3125 C-6.865122 12.112113 -11.50287 10.591035 -17.4375 11.3125 C-19.11084 12.301292 -20.779018 13.298983 -22.4375 14.3125 C-25.391888 13.443562 -27.619244 11.80064 -29.4375 9.3125 C-29.285156 7.410156 -29.285156 7.410156 -28.4375 5.3125 C-26.476562 3.644531 -26.476562 3.644531 -24.0625 2.125 C-23.271016 1.61582 -22.479531 1.106641 -21.664062 0.582031 C-15.334337 -3.027023 -6.572806 -3.110794 0 0 Z " fill="#00B2E3" transform="translate(742.4375,158.6875)"/>
<path d="M0 0 C4.29 1.65 8.58 3.3 13 5 C11.294402 10.116795 9.480783 13.638041 6.375 17.875 C5.924795 18.490688 5.47459 19.106377 5.010742 19.740723 C-2.349695 29.638972 -10.188071 35.327732 -21 41 C-21.737344 41.404766 -22.474687 41.809531 -23.234375 42.226562 C-25 43 -25 43 -28 43 C-29.535156 40.988281 -29.535156 40.988281 -31.0625 38.3125 C-31.569102 37.442383 -32.075703 36.572266 -32.597656 35.675781 C-33.915321 33.161575 -35.00039 30.654467 -36 28 C-35.702871 27.974219 -35.702871 27.974219 -34.199219 27.84375 C-26.192101 26.747908 -21.165933 23.019884 -15 18 C-14.165977 17.38125 -13.331953 16.7625 -12.472656 16.125 C-9.57958 13.638691 -7.50184 10.9505 -5.25 7.875 C-4.471406 6.820547 -3.692812 5.766094 -2.890625 4.679688 C-1 2 -1 2 0 0 Z " fill="#0097C1" transform="translate(834,386)"/>
<path d="M0 0 C3.674306 2.067536 6.221988 4.188391 8.5 7.8125 C6.52 9.7925 4.54 11.7725 2.5 13.8125 C-2.25 11.9375 -2.25 11.9375 -4.5 10.8125 C-9.118912 10.248993 -12.598413 10.370212 -16.8125 12.4375 C-21.075812 16.205078 -23.260373 18.95539 -24 24.6875 C-23.815863 28.684808 -22.371652 31.632902 -20.375 35.050781 C-19.5 36.8125 -19.5 36.8125 -19.5 39.8125 C-21.25 42.0625 -21.25 42.0625 -23.5 43.8125 C-26.172745 43.597822 -27.250686 43.067778 -29.132812 41.140625 C-29.625234 40.454844 -30.117656 39.769062 -30.625 39.0625 C-31.122578 38.387031 -31.620156 37.711563 -32.132812 37.015625 C-36.330586 30.251212 -36.179608 23.58828 -35.5 15.8125 C-33.788476 8.725181 -28.249921 3.943135 -22.5 -0.1875 C-15.301685 -3.740366 -7.189217 -3.38692 0 0 Z " fill="#00B3E4" transform="translate(479.5,159.1875)"/>
<path d="M0 0 C0.33 0 0.66 0 1 0 C1 10.23 1 20.46 1 31 C14.5 34.375 14.5 34.375 19.203125 34.730469 C20.202148 34.811035 21.201172 34.891602 22.230469 34.974609 C23.226914 35.044863 24.223359 35.115117 25.25 35.1875 C26.292852 35.269355 27.335703 35.351211 28.410156 35.435547 C30.939558 35.632794 33.469264 35.820841 36 36 C36.165 35.67 36.165 35.67 37 34 C37.792119 35.895644 38.583676 37.791524 39.375 39.6875 C39.815859 40.743242 40.256719 41.798984 40.710938 42.886719 C41.827575 45.583567 42.922918 48.287163 44 51 C32.630861 56.684569 12.612735 51.024656 1 48 C0 47 0 47 -0.120255 45.095444 C-0.118034 44.262714 -0.115813 43.429985 -0.113525 42.572021 C-0.11345 41.631122 -0.113374 40.690222 -0.113297 39.72081 C-0.108135 38.697904 -0.102974 37.674997 -0.097656 36.621094 C-0.096241 35.579295 -0.094826 34.537495 -0.093369 33.464127 C-0.087751 30.121889 -0.075195 26.779717 -0.0625 23.4375 C-0.057487 21.177735 -0.052924 18.91797 -0.048828 16.658203 C-0.037776 11.105446 -0.02102 5.552728 0 0 Z " fill="#0095BE" transform="translate(756,380)"/>
<path d="M0 0 C2.438582 2.370844 4.755271 4.677211 6.8125 7.390625 C12.444178 14.108412 20.848179 19.772299 29 23 C29.813398 23.369961 30.626797 23.739922 31.464844 24.121094 C43.108443 28.637872 55.729955 27.329889 68 27 C68 30.63 68 34.26 68 38 C60.552782 41.723609 46.447096 39.302287 38.800781 37.039062 C22.034436 30.818912 9.325857 20.142015 0.996094 4.25 C0 2 0 2 0 0 Z " fill="#0098C2" transform="translate(646,280)"/>
<path d="M0 0 C0.165 0.33 0.165 0.33 1 2 C-5.624021 16.976046 -18.654634 27.812353 -33.527344 33.777344 C-43.147294 37.164345 -56.109451 39.29685 -66 36 C-66 32.37 -66 28.74 -66 25 C-64.41832 25.034805 -62.836641 25.069609 -61.207031 25.105469 C-39.415859 25.450894 -22.308761 22.53522 -6.050781 7.175781 C-3.889383 4.882641 -1.93101 2.488954 0 0 Z " fill="#0098C2" transform="translate(552,282)"/>
<path d="M0 0 C0.830398 0.008701 1.660796 0.017402 2.516357 0.026367 C11.128024 0.232271 18.84532 1.691232 25.5625 7.375 C25.7275 8.035 25.7275 8.035 26.5625 11.375 C9.4025 11.375 -7.7575 11.375 -25.4375 11.375 C-22.781731 6.063462 -19.877099 3.729082 -14.34375 1.777344 C-9.500706 0.221717 -5.059531 -0.088628 0 0 Z " fill="#00AFE0" transform="translate(599.4375,124.625)"/>
<path d="M0 0 C0.945773 7.481068 0.945773 7.481068 -1.119141 10.797363 C-2.753075 12.495795 -4.458225 14.031542 -6.25 15.5625 C-18.568432 26.975994 -27.392514 40.679581 -36 55 C-37.98 54.67 -39.96 54.34 -42 54 C-40.60527 49.241937 -38.564157 45.152334 -36 40.9375 C-35.605547 40.286282 -35.211094 39.635063 -34.804688 38.964111 C-10.736532 0 -10.736532 0 0 0 Z " fill="#51CFF2" transform="translate(443,385)"/>
<path d="M0 0 C4.737324 0.555272 8.882326 1.502888 13.34375 3.179688 C13.925762 3.396895 13.925762 3.396895 16.871094 4.496094 C18.068633 4.951133 19.266172 5.406172 20.5 5.875 C21.697539 6.322305 22.895078 6.769609 24.128906 7.230469 C29.810814 9.363544 35.452853 11.536414 41 14 C40.67 14.99 40.34 15.98 40 17 C28.111906 22.205438 16.008558 18.619844 4.507812 14.410156 C1 13 1 13 0 12 C-0.072441 9.980358 -0.083772 7.958329 -0.0625 5.9375 C-0.053477 4.832773 -0.044453 3.728047 -0.035156 2.589844 C-0.023555 1.735195 -0.011953 0.880547 0 0 Z " fill="#FAFAFA" transform="translate(757,356)"/>
<path d="M0 0 C3.224583 1.504805 5.719801 3.271447 8 6 C8.976273 10.617508 8.374613 14.264153 6.25 18.4375 C3.057407 22.073509 1.441975 22.782343 -3.3125 23.5 C-7.614712 22.916649 -9.518568 21.795332 -12.609375 18.84375 C-14.960552 15.72646 -15.406046 12.838282 -15 9 C-12.247716 1.322575 -8.110058 -1.211662 0 0 Z " fill="#FEE1A6" transform="translate(482,212)"/>
<path d="M0 0 C4.062194 0.045207 6.525891 0.612092 9.75 3.25 C12.57883 7.493245 12.40268 11.267345 11.75 16.25 C9.706863 19.75252 7.652128 22.023617 3.75 23.25 C0.432663 23.680025 -2.054895 23.967597 -5 22.199219 C-8.005406 19.750102 -10.039366 17.950119 -10.523438 14.042969 C-10.800262 6.941355 -10.800262 6.941355 -7.8125 3.1875 C-6.966875 2.548125 -6.12125 1.90875 -5.25 1.25 C-3.689664 -0.310336 -2.160529 0.042924 0 0 Z " fill="#FEE1A6" transform="translate(675.25,211.75)"/>
<path d="M0 0 C1.014571 0.985214 2.012589 1.987568 3 3 C4.315456 3.871602 5.6612 4.698492 7.027344 5.488281 C7.812866 5.944207 8.598389 6.400132 9.407715 6.869873 C10.242544 7.34594 11.077373 7.822007 11.9375 8.3125 C12.800688 8.805969 13.663877 9.299438 14.553223 9.807861 C28.483098 17.722504 42.794462 23.931487 58 29 C57.67 30.32 57.34 31.64 57 33 C50.341457 31.837785 44.120048 30.238971 37.8125 27.8125 C36.945364 27.480808 36.078228 27.149116 35.184814 26.807373 C26.499218 23.374299 18.091342 19.375424 9.6875 15.3125 C9.016513 14.989076 8.345526 14.665652 7.654205 14.332428 C0.540383 10.891155 -6.400577 7.374522 -13 3 C-8.644692 0.772545 -4.966257 -0.50936 0 0 Z " fill="#F3C786" transform="translate(857,365)"/>
<path d="M0 0 C5.119161 0.676753 9.541718 2.844603 14.210938 4.929688 C15.097299 5.320686 15.98366 5.711685 16.896881 6.114532 C19.72503 7.363315 22.550056 8.618988 25.375 9.875 C27.268022 10.712709 29.161249 11.549954 31.054688 12.386719 C33.731897 13.569937 36.408797 14.753798 39.084076 15.941376 C39.486168 16.119835 39.486168 16.119835 41.520996 17.022949 C42.280148 17.362048 43.0393 17.701147 43.821457 18.050522 C45.239107 18.668379 46.666859 19.263715 48.104935 19.832413 C49.763536 20.490819 51.386431 21.237864 53 22 C54.121094 24.699219 54.121094 24.699219 54.4375 27.6875 C54.49873 28.184434 54.49873 28.184434 54.808594 30.699219 C54.871758 31.458477 54.934922 32.217734 55 33 C43.562238 27.714873 32.325938 22.13809 21.181152 16.259766 C14.218446 12.599805 7.208684 9.154664 0 6 C0 4.02 0 2.04 0 0 Z " fill="#F2C788" transform="translate(756,315)"/>
<path d="M0 0 C5.94 1.98 11.88 3.96 18 6 C17.012238 11.597318 15.813044 17.050808 14.1875 22.5 C13.892305 23.500313 13.597109 24.500625 13.292969 25.53125 C12 28 12 28 9.800781 29.34375 C7 30 7 30 0 30 C0 20.1 0 10.2 0 0 Z " fill="#F9F5EA" transform="translate(603,324)"/>
<path d="M0 0 C0 9.57 0 19.14 0 29 C-8 29 -8 29 -11 28 C-12.0625 25.777344 -12.0625 25.777344 -13 22.9375 C-13.167578 22.440566 -13.167578 22.440566 -14.015625 19.925781 C-14.340469 18.960273 -14.665313 17.994766 -15 17 C-15.577423 15.539316 -16.159955 14.080631 -16.75 12.625 C-17.884476 9.335019 -18.1164 7.387242 -18 4 C-17.336133 3.878828 -16.672266 3.757656 -15.988281 3.632812 C-10.712767 2.63162 -5.240342 0 0 0 Z " fill="#F8F4E9" transform="translate(597,325)"/>
<path d="M0 0 C0.33 0 0.66 0 1 0 C1.233414 7.597706 1.410232 15.195034 1.518122 22.795527 C1.569953 26.326495 1.64003 29.854982 1.754395 33.384521 C2.612215 60.561586 2.612215 60.561586 -3.789062 68.425781 C-6.443848 71.239502 -6.443848 71.239502 -9 73 C-13 73 -13 73 -14.703125 71.46875 C-15.213594 70.819062 -15.724063 70.169375 -16.25 69.5 C-16.770781 68.850312 -17.291562 68.200625 -17.828125 67.53125 C-18.021484 67.278594 -18.021484 67.278594 -19 66 C-17.696793 63.889606 -16.382752 61.787205 -15.0625 59.6875 C-14.708652 59.111934 -14.354805 58.536367 -13.990234 57.943359 C-12.077743 54.919334 -10.315071 52.301687 -7.712646 49.809814 C-0.192943 42.279674 0.140624 35.588327 0.146484 25.458984 C0.119463 23.576809 0.091456 21.694647 0.0625 19.8125 C0.06558 17.887359 0.072707 15.96222 0.083984 14.037109 C0.102684 9.356791 0.066532 4.679851 0 0 Z " fill="#0099C3" transform="translate(443,384)"/>
<path d="M0 0 C0.543984 0.143086 0.543984 0.143086 3.296875 0.867188 C10.115813 2.787805 10.115813 2.787805 13 4 C13.33 4.99 13.66 5.98 14 7 C9.05 7.33 4.1 7.66 -1 8 C13.640939 16.248041 27.860492 24.142305 44.242188 28.359375 C46 29 46 29 47 31 C46.34 31.99 45.68 32.98 45 34 C24.985973 26.912148 4.181053 18.786515 -13 6 C-13.33 5.01 -13.66 4.02 -14 3 C-8.942623 -0.405988 -5.992258 -1.702836 0 0 Z " fill="#DAA767" transform="translate(870,361)"/>
<path d="M0 0 C5.206896 0.565967 9.160598 2.266633 13.75 4.625 C14.455923 4.984729 15.161846 5.344458 15.88916 5.715088 C25.591933 10.757378 34.411375 17.072309 42 25 C42 25.66 42 26.32 42 27 C35.448299 26.532021 30.681022 24.438689 25.3125 20.75 C16.515347 14.715168 7.121059 11.317116 -3 8 C-2.372401 5.071206 -1.413773 2.639044 0 0 Z " fill="#4BD2F7" transform="translate(672,158)"/>
<path d="M0 0 C1.794176 2.563108 2 3.831193 2 7 C1.163398 7.268125 0.326797 7.53625 -0.535156 7.8125 C-11.017942 11.341588 -20.998584 15.805056 -30.101562 22.167969 C-32.997009 23.99811 -35.02704 24.707088 -38.375 25.25 C-39.248984 25.399531 -40.122969 25.549062 -41.023438 25.703125 C-41.34957 25.752109 -41.34957 25.752109 -43 26 C-38.1439 13.618366 -18.504682 4.995374 -7.4375 -0.285156 C-4.538305 -1.135401 -2.855184 -0.928795 0 0 Z " fill="#4CD1F6" transform="translate(529,159)"/>
<path d="M0 0 C1.201677 12.183672 1.201677 12.183672 -1.359375 16.054688 C-3.488044 17.681976 -5.587552 18.830551 -8 20 C-9.010625 20.554297 -10.02125 21.108594 -11.0625 21.679688 C-19.185484 26 -19.185484 26 -24 26 C-24 27.65 -24 29.3 -24 31 C-24.33 31 -24.66 31 -25 31 C-25 25.72 -25 20.44 -25 15 C-22.69 13.824375 -20.38 12.64875 -18 11.4375 C-12.526928 8.590322 -7.838027 5.621272 -3.417969 1.25 C-2 0 -2 0 0 0 Z " fill="#0096BF" transform="translate(744,290)"/>
<path d="M0 0 C6.593863 6.246817 6.593863 6.246817 7.371094 11.515625 C7.537426 18.364582 6.535725 22.774056 2 28 C-3.736787 33.203132 -7.78438 33.453289 -15.425781 33.421875 C-20.47734 32.825625 -23.731997 30.870747 -27 27 C-27.33 26.01 -27.66 25.02 -28 24 C-23.25 24.875 -23.25 24.875 -21 26 C-15.013346 26.869431 -10.882045 25.924331 -5.824219 22.679688 C-2.042258 19.197368 -0.131081 16.297703 0.390625 11.132812 C0.364419 9.79631 0.317271 8.460066 0.25 7.125 C0.240977 6.78082 0.240977 6.78082 0.195312 5.039062 C0.148637 3.358762 0.076909 1.679188 0 0 Z " fill="#DF8D21" transform="translate(612,52)"/>
<path d="M0 0 C0.415078 0.340312 0.830156 0.680625 1.257812 1.03125 C8.254363 6.534812 16.043013 11.021506 24 15 C24 20.28 24 25.56 24 31 C23.67 31 23.34 31 23 31 C23 29.35 23 27.7 23 26 C22.136328 25.894297 21.272656 25.788594 20.382812 25.679688 C16.802115 24.96024 14.116012 23.791096 10.875 22.125 C9.861797 21.611953 8.848594 21.098906 7.804688 20.570312 C5.338034 19.189261 3.125894 17.861429 1 16 C1 15.34 1 14.68 1 14 C0.34 14 -0.32 14 -1 14 C-1.027193 12.416763 -1.046483 10.833389 -1.0625 9.25 C-1.074102 8.368281 -1.085703 7.486562 -1.097656 6.578125 C-1.008262 4.218116 -0.669128 2.255015 0 0 Z " fill="#0096BF" transform="translate(457,290)"/>
<path d="M0 0 C13.470254 6.069015 26.254254 14.824436 37 25 C37 25.66 37 26.32 37 27 C30.147108 25.122044 23.5482 22.740603 16.919678 20.203857 C12.242101 18.427259 7.549586 16.872591 2.722656 15.542969 C1 15 1 15 0 14 C-0.072717 11.646864 -0.083709 9.291663 -0.0625 6.9375 C-0.053477 5.647148 -0.044453 4.356797 -0.035156 3.027344 C-0.023555 2.02832 -0.011953 1.029297 0 0 Z " fill="#D3A266" transform="translate(756,330)"/>
<path d="M0 0 C-0.78375 1.051875 -1.5675 2.10375 -2.375 3.1875 C-6.457106 8.969519 -7.237316 12.999178 -7 20 C-14.519096 19.290651 -22.628285 18.24781 -29 14 C-29.1875 10.375 -29.1875 10.375 -29 7 C-28.057695 6.735742 -27.115391 6.471484 -26.144531 6.199219 C-23.086631 5.326743 -20.047931 4.402131 -17.011719 3.457031 C-16.140957 3.188262 -15.270195 2.919492 -14.373047 2.642578 C-12.561541 2.082658 -10.751668 1.51743 -8.943359 0.947266 C-8.079043 0.682363 -7.214727 0.417461 -6.324219 0.144531 C-5.541355 -0.099343 -4.758491 -0.343218 -3.951904 -0.594482 C-2 -1 -2 -1 0 0 Z " fill="#0096C0" transform="translate(678,587)"/>
<path d="M0 0 C6.390881 1.193383 12.730273 2.593503 19.0625 4.0625 C19.4437 4.149673 19.4437 4.149673 21.372803 4.59082 C26.882164 5.882164 26.882164 5.882164 28 7 C28.141152 9.670589 28.042471 12.324322 28 15 C21.014246 17.289538 14.35013 19.423519 7 20 C6.913633 19.226562 6.827266 18.453125 6.738281 17.65625 C5.794894 10.66307 4.326035 5.613938 0 0 Z " fill="#0098C2" transform="translate(523,587)"/>
<path d="M0 0 C3.795213 1.490977 5.610427 3.757008 8 7 C4.261662 15.258676 -2.619712 23.369637 -10.8125 27.375 C-15.043083 28.204526 -18.776817 27.694479 -23 27 C-21.145946 25.068694 -19.272705 23.223015 -17.199219 21.527344 C-11.676689 16.991363 -7.875446 11.975055 -4 6 C-3.188438 4.791036 -2.376118 3.582581 -1.5625 2.375 C-1.046875 1.59125 -0.53125 0.8075 0 0 Z " fill="#0097C1" transform="translate(421,456)"/>
<path d="M0 0 C4.29 0 8.58 0 13 0 C12.34 0.66 11.68 1.32 11 2 C20.267999 7.450723 29.621953 12.457944 39.375 17 C39.693328 17.1493 39.693328 17.1493 41.30426 17.904846 C53.544447 23.619574 66.043737 28.157444 79 32 C78.01 33.32 77.02 34.64 76 36 C50.126196 28.288592 22.052308 16.828148 0 1 C0 0.67 0 0.34 0 0 Z " fill="#D3A060" transform="translate(835,366)"/>
<path d="M0 0 C6.75 0.75 6.75 0.75 9 3 C7.193274 6.97305 5.37835 10.942215 3.555664 14.907959 C2.936521 16.258152 2.319648 17.609389 1.705078 18.96167 C0.82233 20.903005 -0.06846 22.840466 -0.960938 24.777344 C-1.495093 25.945154 -2.029248 27.112964 -2.57959 28.316162 C-4 31 -4 31 -6 32 C-8.625 31 -8.625 31 -11 29 C-11.658144 23.157144 -10.156623 19.099461 -7.75 13.9375 C-7.449648 13.25623 -7.149297 12.574961 -6.839844 11.873047 C-4.915468 7.610759 -2.694469 3.821139 0 0 Z " fill="#E5B67A" transform="translate(336,214)"/>
<path d="M0 0 C5.85855 2.847146 9.920203 6.526317 12.925781 12.421875 C13.235552 15.184832 13.118492 17.627567 12.925781 20.421875 C12.245156 19.720625 11.564531 19.019375 10.863281 18.296875 C9.886369 17.336244 8.907022 16.378084 7.925781 15.421875 C7.441094 14.929453 6.956406 14.437031 6.457031 13.929688 C-0.664194 7.19245 -10.596734 3.586847 -20.261719 2.859375 C-21.348398 2.775586 -22.435078 2.691797 -23.554688 2.605469 C-24.386133 2.544883 -25.217578 2.484297 -26.074219 2.421875 C-25.101415 -0.010134 -24.438237 -1.337242 -22.226562 -2.800781 C-14.546253 -5.574613 -7.214077 -3.017875 0 0 Z " fill="#54CDEF" transform="translate(847.07421875,326.578125)"/>
<path d="M0 0 C6.3995 1.796351 11.978142 4.487175 17.778809 7.669434 C22.99703 10.513049 28.306707 13.10397 33.6875 15.625 C34.493083 16.004468 35.298667 16.383936 36.128662 16.774902 C39.064875 18.156968 42.001118 19.538631 44.947266 20.899414 C46.615911 21.671733 48.277027 22.460263 49.9375 23.25 C50.833398 23.667656 51.729297 24.085312 52.652344 24.515625 C56.045266 26.6609 58.212365 29.42473 60 33 C55.283989 32.431915 51.702116 30.310686 47.6875 27.9375 C32.256683 19.052823 16.07248 11.639076 0 4 C0 2.68 0 1.36 0 0 Z " fill="#D5A161" transform="translate(756,321)"/>
<path d="M0 0 C0.640664 0.193359 1.281328 0.386719 1.941406 0.585938 C3.747321 1.129596 5.554709 1.668373 7.363281 2.203125 C9.339182 2.800286 11.299391 3.449789 13.25 4.125 C19.094378 5.488688 25.018994 5.684774 31 6 C31 8.31 31 10.62 31 13 C19.494407 13.565849 10.390082 12.401869 0 7 C0 4.69 0 2.38 0 0 Z " fill="#50CEF1" transform="translate(757,380)"/>
<path d="M0 0 C5.49912 3.244823 9.479969 7.740233 12.5625 13.3125 C12.3125 15.6875 12.3125 15.6875 11.5625 17.3125 C11.366562 16.94125 11.366562 16.94125 10.375 15.0625 C6.987057 9.922173 2.355849 7.185331 -3.4375 5.3125 C-6.189676 5.006703 -8.637008 4.835633 -11.375 4.875 C-11.725383 4.876611 -11.725383 4.876611 -13.498535 4.884766 C-19.183622 5.038166 -22.711526 6.287877 -27.4375 9.3125 C-28.0975 9.3125 -28.7575 9.3125 -29.4375 9.3125 C-29.084508 6.50682 -28.668146 5.508687 -26.476562 3.644531 C-25.679922 3.143086 -24.883281 2.641641 -24.0625 2.125 C-23.271016 1.61582 -22.479531 1.106641 -21.664062 0.582031 C-15.334337 -3.027023 -6.572806 -3.110794 0 0 Z " fill="#49CFF4" transform="translate(742.4375,158.6875)"/>
<path d="M0 0 C3.674306 2.067536 6.221988 4.188391 8.5 7.8125 C7.51 8.1425 6.52 8.4725 5.5 8.8125 C4.448125 8.173125 3.39625 7.53375 2.3125 6.875 C-4.681548 3.177592 -14.135415 3.512528 -21.582031 5.730469 C-26.825238 8.15948 -30.208314 11.094417 -33.5 15.8125 C-33.83 15.1525 -34.16 14.4925 -34.5 13.8125 C-31.495999 7.151455 -26.732365 1.880431 -20.101562 -1.359375 C-13.327603 -3.515651 -6.401771 -3.015945 0 0 Z " fill="#4AD0F5" transform="translate(479.5,159.1875)"/>
<path d="M0 0 C4.679621 1.679158 8.834459 4.088991 13.125 6.5625 C14.542873 7.378735 15.962093 8.192636 17.382812 9.003906 C18.005591 9.362991 18.628369 9.722075 19.27002 10.092041 C21 11 21 11 24 12 C24 13.98 24 15.96 24 18 C18.601444 17.449127 14.54714 15.528004 9.8125 13.0625 C9.101582 12.702207 8.390664 12.341914 7.658203 11.970703 C4.64291 10.430436 1.824119 8.882746 -1 7 C-0.67 4.69 -0.34 2.38 0 0 Z " fill="#F6C787" transform="translate(422,266)"/>
<path d="M0 0 C8.333333 3.333333 16.666667 6.666667 25 10 C25 11.98 25 13.96 25 16 C18.79009 15.469166 13.738092 13.436487 8.0625 10.9375 C7.187871 10.560449 6.313242 10.183398 5.412109 9.794922 C3.271353 8.87077 1.134264 7.939025 -1 7 C-0.67 4.69 -0.34 2.38 0 0 Z " fill="#EFC688" transform="translate(420,277)"/>
<path d="M0 0 C1.98 0.66 3.96 1.32 6 2 C5.60168 3.041562 5.203359 4.083125 4.792969 5.15625 C1.11789 15.013195 -1.405224 24.605978 -3 35 C-5.370625 33.187538 -5.957658 32.288509 -6.398438 29.285156 C-6.322342 18.822051 -4.516004 9.462104 0 0 Z " fill="#4DCDF1" transform="translate(398,444)"/>
<path d="M0 0 C5.717049 1.444969 9.614189 4.392657 14.1875 7.9375 C14.542959 8.206592 14.542959 8.206592 16.341797 9.568359 C19.410445 11.909539 22.315222 14.218659 25 17 C19.485071 16.285771 14.392578 14.647083 9.125 12.9375 C8.245859 12.65584 7.366719 12.37418 6.460938 12.083984 C4.306099 11.393031 2.152883 10.697022 0 10 C0 6.7 0 3.4 0 0 Z " fill="#EFC586" transform="translate(757,335)"/>
<path d="M0 0 C0.443437 0.12375 0.443437 0.12375 2.6875 0.75 C0.105334 6.761606 -5.140277 11.416875 -11.128906 13.933594 C-13.514378 14.642788 -15.873082 15.261098 -18.3125 15.75 C-18.3125 13.44 -18.3125 11.13 -18.3125 8.75 C-17.648633 8.435469 -16.984766 8.120938 -16.300781 7.796875 C-8.774766 4.14923 -8.774766 4.14923 -5.5625 1.375 C-3.3125 -0.25 -3.3125 -0.25 0 0 Z " fill="#4FCDF0" transform="translate(812.3125,376.25)"/>
<path d="M0 0 C0.99 0.33 1.98 0.66 3 1 C2.34 1 1.68 1 1 1 C1.061517 12.606018 1.13884 24.211817 1.235715 35.817597 C1.280227 41.208054 1.319524 46.598438 1.346436 51.989014 C1.372662 57.202254 1.413197 62.415214 1.463186 67.628279 C1.479726 69.60589 1.49132 71.58355 1.497614 73.56122 C1.537972 85.088059 2.171391 95.788012 5 107 C3.68 106.67 2.36 106.34 1 106 C0.123294 99.986408 -0.13812 94.167797 -0.113525 88.095703 C-0.113671 87.138685 -0.113817 86.181667 -0.113968 85.195648 C-0.113276 82.057492 -0.105516 78.919396 -0.097656 75.78125 C-0.09579 73.5955 -0.094367 71.40975 -0.093369 69.223999 C-0.089563 63.489856 -0.079749 57.755739 -0.068665 52.021606 C-0.058409 46.162845 -0.053862 40.30408 -0.048828 34.445312 C-0.038125 22.96353 -0.021072 11.481767 0 0 Z " fill="#00ACDC" transform="translate(455,372)"/>
<path d="M0 0 C1.875 1.125 1.875 1.125 3 3 C3.393656 6.149245 3.528545 8.119091 1.875 10.875 C-0.880909 12.528545 -2.850755 12.393656 -6 12 C-7.875 10.875 -7.875 10.875 -9 9 C-9.393656 5.850755 -9.528545 3.880909 -7.875 1.125 C-5.119091 -0.528545 -3.149245 -0.393656 0 0 Z " fill="#FEE1AD" transform="translate(598,54)"/>
<path d="M0 0 C6.286267 0.558779 12.422617 1.966845 18 5 C19.982452 7.41749 20.312595 8.849396 21 12 C20.67 12.99 20.34 13.98 20 15 C16.656074 13.080355 13.32692 11.136446 10 9.1875 C9.046094 8.640293 8.092188 8.093086 7.109375 7.529297 C6.207031 6.997559 5.304688 6.46582 4.375 5.917969 C3.537109 5.430945 2.699219 4.943921 1.835938 4.442139 C1.230078 3.966233 0.624219 3.490327 0 3 C0 2.01 0 1.02 0 0 Z " fill="#F3C687" transform="translate(424,260)"/>
</svg>
